<mxfile host="app.diagrams.net" modified="2024-07-09T18:30:49.418Z" agent="Mozilla/5.0 (X11; Linux x86_64) AppleWebKit/537.36 (KHTML, like Gecko) Chrome/120.0.0.0 Safari/537.36" etag="Y8PCz3ptX8TN2R6LtS1p" version="24.6.4" type="device">
  <diagram name="Page-1" id="Si3jWaoi3h3NrxOrcOzE">
    <mxGraphModel dx="2569" dy="957" grid="0" gridSize="10" guides="1" tooltips="1" connect="1" arrows="1" fold="1" page="1" pageScale="1" pageWidth="1100" pageHeight="850" math="0" shadow="0">
      <root>
        <mxCell id="0" />
        <mxCell id="1" parent="0" />
        <mxCell id="byGhOwaWoWd87iB-xlGQ-1" value="" style="rounded=1;whiteSpace=wrap;html=1;fillColor=none;arcSize=4;" vertex="1" parent="1">
          <mxGeometry x="28.47" y="81.70000000000005" width="910" height="726.3" as="geometry" />
        </mxCell>
        <mxCell id="byGhOwaWoWd87iB-xlGQ-2" value="" style="rounded=1;whiteSpace=wrap;html=1;fillColor=none;arcSize=4;" vertex="1" parent="1">
          <mxGeometry x="48.83189659238087" y="318.0126436781609" width="573.7094593996239" height="471.735632183908" as="geometry" />
        </mxCell>
        <mxCell id="byGhOwaWoWd87iB-xlGQ-3" value="Vortex Pipeline&lt;div style=&quot;font-size: 18px;&quot;&gt;&lt;br style=&quot;font-size: 18px;&quot;&gt;&lt;/div&gt;" style="rounded=1;whiteSpace=wrap;html=1;fontSize=18;glass=0;shadow=1;fillColor=#f8cecc;strokeColor=#b85450;fontFamily=Courier New;textShadow=1;textOpacity=70;" vertex="1" parent="1">
          <mxGeometry x="48.83552801121701" y="100.01574712643679" width="573.7094593996239" height="139.01597701149424" as="geometry" />
        </mxCell>
        <mxCell id="byGhOwaWoWd87iB-xlGQ-4" value="&lt;font data-font-src=&quot;https://fonts.googleapis.com/css?family=Coming+soon&quot; style=&quot;font-size: 16px;&quot;&gt;DMA&lt;/font&gt;" style="rounded=1;whiteSpace=wrap;html=1;fontSize=16;shadow=1;fillColor=#e1d5e7;strokeColor=#9673a6;fontFamily=Courier New;textShadow=1;textOpacity=70;" vertex="1" parent="1">
          <mxGeometry x="673.9902218479119" y="437.79481282866715" width="144.4948400798103" height="139.0118683876868" as="geometry" />
        </mxCell>
        <mxCell id="byGhOwaWoWd87iB-xlGQ-5" value="&lt;font data-font-src=&quot;https://fonts.googleapis.com/css?family=Dancing+script&quot; style=&quot;font-size: 16px;&quot; color=&quot;#000000&quot;&gt;Controller&lt;/font&gt;" style="rounded=1;whiteSpace=wrap;html=1;fontSize=16;shadow=1;fillColor=#f5f5f5;strokeColor=#666666;fontFamily=Courier New;textShadow=1;textOpacity=70;fontColor=#333333;" vertex="1" parent="1">
          <mxGeometry x="673.9926655106485" y="259.63989524225224" width="144.49314014051524" height="98.58868034337264" as="geometry" />
        </mxCell>
        <mxCell id="byGhOwaWoWd87iB-xlGQ-6" value="" style="endArrow=classic;startArrow=classic;html=1;rounded=0;exitX=0;exitY=0.5;exitDx=0;exitDy=0;entryX=1;entryY=0.5;entryDx=0;entryDy=0;shadow=1;fontFamily=Courier New;fontSize=13;" edge="1" parent="1" source="byGhOwaWoWd87iB-xlGQ-50" target="byGhOwaWoWd87iB-xlGQ-3">
          <mxGeometry width="50" height="50" relative="1" as="geometry">
            <mxPoint x="626.814888330458" y="293.844131279749" as="sourcePoint" />
            <mxPoint x="566.6087049638707" y="293.2602814325207" as="targetPoint" />
          </mxGeometry>
        </mxCell>
        <mxCell id="byGhOwaWoWd87iB-xlGQ-7" value="Config" style="text;html=1;align=left;verticalAlign=middle;whiteSpace=wrap;rounded=0;fontSize=13;shadow=0;textShadow=1;fontFamily=Courier New;textOpacity=70;" vertex="1" parent="1">
          <mxGeometry x="978.2145009470485" y="306.2623551786494" width="96.3298933865402" height="41.70356051630605" as="geometry" />
        </mxCell>
        <mxCell id="byGhOwaWoWd87iB-xlGQ-8" value="Instructions" style="text;html=1;align=left;verticalAlign=middle;whiteSpace=wrap;rounded=0;fontSize=13;shadow=0;textShadow=1;fontFamily=Courier New;textOpacity=70;" vertex="1" parent="1">
          <mxGeometry x="980.4363633752838" y="499" width="119.56363662471627" height="41.703011785246616" as="geometry" />
        </mxCell>
        <mxCell id="byGhOwaWoWd87iB-xlGQ-9" value="Data" style="text;html=1;align=left;verticalAlign=middle;whiteSpace=wrap;rounded=0;fontSize=13;shadow=0;textShadow=1;labelBorderColor=none;labelBackgroundColor=none;fontFamily=Courier New;textOpacity=70;" vertex="1" parent="1">
          <mxGeometry x="980.4376029143531" y="469" width="91.51339871721319" height="41.70356051630605" as="geometry" />
        </mxCell>
        <mxCell id="byGhOwaWoWd87iB-xlGQ-10" value="" style="endArrow=classic;startArrow=none;html=1;rounded=0;shadow=1;startFill=0;fontFamily=Courier New;fontSize=13;" edge="1" parent="1">
          <mxGeometry width="50" height="50" relative="1" as="geometry">
            <mxPoint x="673.2609036217676" y="489.63208891937404" as="sourcePoint" />
            <mxPoint x="458.1198563469088" y="489.63574712643674" as="targetPoint" />
          </mxGeometry>
        </mxCell>
        <mxCell id="byGhOwaWoWd87iB-xlGQ-11" value="" style="endArrow=classic;startArrow=none;html=1;rounded=0;shadow=1;startFill=0;entryX=0.75;entryY=0;entryDx=0;entryDy=0;fontFamily=Courier New;fontSize=13;" edge="1" parent="1" target="byGhOwaWoWd87iB-xlGQ-117">
          <mxGeometry width="50" height="50" relative="1" as="geometry">
            <mxPoint x="674.1788387568071" y="521.471264367816" as="sourcePoint" />
            <mxPoint x="554.4505974640177" y="505.142171229033" as="targetPoint" />
            <Array as="points">
              <mxPoint x="565.1740414708786" y="521.471264367816" />
            </Array>
          </mxGeometry>
        </mxCell>
        <mxCell id="byGhOwaWoWd87iB-xlGQ-12" value="" style="endArrow=classic;startArrow=classic;html=1;rounded=0;shadow=1;exitX=0.5;exitY=0;exitDx=0;exitDy=0;entryX=0.5;entryY=1;entryDx=0;entryDy=0;fontFamily=Courier New;fontSize=13;" edge="1" parent="1" source="byGhOwaWoWd87iB-xlGQ-4" target="byGhOwaWoWd87iB-xlGQ-5">
          <mxGeometry width="50" height="50" relative="1" as="geometry">
            <mxPoint x="759.5208612931832" y="418.9548128286672" as="sourcePoint" />
            <mxPoint x="759.1114592462905" y="363.3500654735924" as="targetPoint" />
          </mxGeometry>
        </mxCell>
        <mxCell id="byGhOwaWoWd87iB-xlGQ-13" value="Instruction" style="text;html=1;align=center;verticalAlign=middle;whiteSpace=wrap;rounded=0;fontSize=13;shadow=0;textShadow=1;labelBorderColor=none;labelBackgroundColor=none;fontFamily=Courier New;textOpacity=70;" vertex="1" parent="1">
          <mxGeometry x="470.27744692768016" y="204.62068965517244" width="72.24742003990515" height="41.70356051630605" as="geometry" />
        </mxCell>
        <mxCell id="byGhOwaWoWd87iB-xlGQ-14" value="&lt;p style=&quot;line-height: 100%; font-size: 13px;&quot;&gt;Data Thread 0&lt;/p&gt;" style="text;html=1;align=center;verticalAlign=middle;whiteSpace=wrap;rounded=0;fontSize=13;shadow=0;textShadow=1;labelBorderColor=none;labelBackgroundColor=none;fontFamily=Courier New;textOpacity=70;" vertex="1" parent="1">
          <mxGeometry x="85.11314836463312" y="197.9916091954023" width="80.14045067926477" height="41.703011785246616" as="geometry" />
        </mxCell>
        <mxCell id="byGhOwaWoWd87iB-xlGQ-15" value="&lt;p style=&quot;line-height: 100%; font-size: 13px;&quot;&gt;Data Thread 1&lt;/p&gt;" style="text;html=1;align=center;verticalAlign=middle;whiteSpace=wrap;rounded=0;fontSize=13;shadow=0;textShadow=1;labelBorderColor=none;labelBackgroundColor=none;fontFamily=Courier New;textOpacity=70;" vertex="1" parent="1">
          <mxGeometry x="182.54803770836207" y="197.9916091954023" width="76.24897089426241" height="41.703011785246616" as="geometry" />
        </mxCell>
        <mxCell id="byGhOwaWoWd87iB-xlGQ-16" value="&lt;p style=&quot;line-height: 100%; font-size: 13px;&quot;&gt;Data Thread 2&lt;/p&gt;" style="text;html=1;align=center;verticalAlign=middle;whiteSpace=wrap;rounded=0;fontSize=13;shadow=0;textShadow=1;labelBorderColor=none;labelBackgroundColor=none;fontFamily=Courier New;textOpacity=70;" vertex="1" parent="1">
          <mxGeometry x="276.19312488617436" y="197.9916091954023" width="81.60091102613029" height="41.703011785246616" as="geometry" />
        </mxCell>
        <mxCell id="byGhOwaWoWd87iB-xlGQ-17" value="&lt;p style=&quot;line-height: 100%; font-size: 13px;&quot;&gt;Data Thread 3&lt;/p&gt;" style="text;html=1;align=center;verticalAlign=middle;whiteSpace=wrap;rounded=0;fontSize=13;shadow=0;textShadow=1;labelBorderColor=none;labelBackgroundColor=none;fontFamily=Courier New;textOpacity=70;" vertex="1" parent="1">
          <mxGeometry x="371.65916578760994" y="197.9916091954023" width="77.70018782121106" height="41.703011785246616" as="geometry" />
        </mxCell>
        <mxCell id="byGhOwaWoWd87iB-xlGQ-18" value="GPU-based Accelerator with Scratchpad" style="text;html=1;align=left;verticalAlign=middle;whiteSpace=wrap;rounded=0;fontSize=18;shadow=0;textShadow=1;fontFamily=Courier New;textOpacity=70;" vertex="1" parent="1">
          <mxGeometry x="53.181242200168846" y="46" width="406.19585907925716" height="41.70390804597701" as="geometry" />
        </mxCell>
        <mxCell id="byGhOwaWoWd87iB-xlGQ-19" value="" style="group;fontFamily=Courier New;fontSize=13;" vertex="1" connectable="0" parent="1">
          <mxGeometry x="492.5217302742515" y="239.0258984431835" width="69.27272903349117" height="83.40712103261215" as="geometry" />
        </mxCell>
        <mxCell id="byGhOwaWoWd87iB-xlGQ-20" value="" style="group;fontFamily=Courier New;fontSize=13;" vertex="1" connectable="0" parent="byGhOwaWoWd87iB-xlGQ-19">
          <mxGeometry y="12.43212123247034" width="69.27272903349117" height="56.95302300164428" as="geometry" />
        </mxCell>
        <mxCell id="byGhOwaWoWd87iB-xlGQ-21" value="Mem" style="text;html=1;align=left;verticalAlign=middle;whiteSpace=wrap;rounded=0;fontSize=13;shadow=0;textShadow=1;labelBorderColor=none;labelBackgroundColor=none;fontFamily=Courier New;textOpacity=70;" vertex="1" parent="byGhOwaWoWd87iB-xlGQ-20">
          <mxGeometry x="18.896283871525505" y="22.781209200657706" width="50.380166569811735" height="34.17181380098657" as="geometry" />
        </mxCell>
        <mxCell id="byGhOwaWoWd87iB-xlGQ-22" value="" style="group;fontFamily=Courier New;fontSize=13;" vertex="1" connectable="0" parent="byGhOwaWoWd87iB-xlGQ-20">
          <mxGeometry width="69.27272903349112" height="34.17181380098657" as="geometry" />
        </mxCell>
        <mxCell id="byGhOwaWoWd87iB-xlGQ-23" value="" style="endArrow=none;html=1;rounded=0;shadow=1;strokeColor=#b85450;fillColor=#f8cecc;fontFamily=Courier New;fontSize=13;" edge="1" parent="byGhOwaWoWd87iB-xlGQ-22">
          <mxGeometry width="50" height="50" relative="1" as="geometry">
            <mxPoint y="29.61557196085502" as="sourcePoint" />
            <mxPoint x="25.190083284905864" y="6.834362760197312" as="targetPoint" />
          </mxGeometry>
        </mxCell>
        <mxCell id="byGhOwaWoWd87iB-xlGQ-24" value="32-bit" style="text;html=1;align=left;verticalAlign=middle;whiteSpace=wrap;rounded=0;fontSize=13;shadow=0;textShadow=1;labelBorderColor=none;labelBackgroundColor=none;fontFamily=Courier New;textOpacity=70;fontColor=#990000;" vertex="1" parent="byGhOwaWoWd87iB-xlGQ-22">
          <mxGeometry x="18.892562463679397" width="50.38016656981173" height="34.17181380098657" as="geometry" />
        </mxCell>
        <mxCell id="byGhOwaWoWd87iB-xlGQ-25" value="" style="endArrow=none;startArrow=classic;html=1;rounded=0;shadow=1;endFill=0;fontFamily=Courier New;fontSize=13;" edge="1" parent="byGhOwaWoWd87iB-xlGQ-19">
          <mxGeometry width="50" height="50" relative="1" as="geometry">
            <mxPoint x="15.28136525666473" y="101.89364178670156" as="sourcePoint" />
            <mxPoint x="15.28136525666473" y="0.11203259129925937" as="targetPoint" />
          </mxGeometry>
        </mxCell>
        <mxCell id="byGhOwaWoWd87iB-xlGQ-26" value="" style="group;fontFamily=Courier New;fontSize=13;" vertex="1" connectable="0" parent="1">
          <mxGeometry x="300.25654975008695" y="239.0258984431835" width="69.27272903349117" height="83.40712103261215" as="geometry" />
        </mxCell>
        <mxCell id="byGhOwaWoWd87iB-xlGQ-27" value="" style="group;fontFamily=Courier New;fontSize=13;" vertex="1" connectable="0" parent="byGhOwaWoWd87iB-xlGQ-26">
          <mxGeometry y="12.43212123247034" width="69.27272903349117" height="56.95302300164428" as="geometry" />
        </mxCell>
        <mxCell id="byGhOwaWoWd87iB-xlGQ-28" value="Mem" style="text;html=1;align=left;verticalAlign=middle;whiteSpace=wrap;rounded=0;fontSize=13;shadow=0;textShadow=1;labelBorderColor=none;labelBackgroundColor=none;fontFamily=Courier New;textOpacity=70;" vertex="1" parent="byGhOwaWoWd87iB-xlGQ-27">
          <mxGeometry x="18.896283871525505" y="22.781209200657706" width="50.380166569811735" height="34.17181380098657" as="geometry" />
        </mxCell>
        <mxCell id="byGhOwaWoWd87iB-xlGQ-29" value="" style="group;fontFamily=Courier New;fontSize=13;" vertex="1" connectable="0" parent="byGhOwaWoWd87iB-xlGQ-27">
          <mxGeometry x="3.1458402023746057" width="69.27272903349112" height="34.17181380098657" as="geometry" />
        </mxCell>
        <mxCell id="byGhOwaWoWd87iB-xlGQ-30" value="" style="endArrow=none;html=1;rounded=0;shadow=1;strokeColor=#b85450;fillColor=#f8cecc;fontFamily=Courier New;fontSize=13;" edge="1" parent="byGhOwaWoWd87iB-xlGQ-29">
          <mxGeometry width="50" height="50" relative="1" as="geometry">
            <mxPoint y="29.61557196085502" as="sourcePoint" />
            <mxPoint x="25.190083284905864" y="6.834362760197312" as="targetPoint" />
          </mxGeometry>
        </mxCell>
        <mxCell id="byGhOwaWoWd87iB-xlGQ-31" value="32-bit" style="text;html=1;align=left;verticalAlign=middle;whiteSpace=wrap;rounded=0;fontSize=13;shadow=0;textShadow=1;labelBorderColor=none;labelBackgroundColor=none;fontFamily=Courier New;textOpacity=70;fontColor=#990000;" vertex="1" parent="byGhOwaWoWd87iB-xlGQ-29">
          <mxGeometry x="18.892562463679397" width="50.38016656981173" height="34.17181380098657" as="geometry" />
        </mxCell>
        <mxCell id="byGhOwaWoWd87iB-xlGQ-32" value="" style="endArrow=none;startArrow=classic;html=1;rounded=0;shadow=1;endFill=0;fontFamily=Courier New;fontSize=13;" edge="1" parent="byGhOwaWoWd87iB-xlGQ-26">
          <mxGeometry width="50" height="50" relative="1" as="geometry">
            <mxPoint x="16.31005931428793" y="101.89364178670156" as="sourcePoint" />
            <mxPoint x="16.31005931428793" y="0.11203259129925937" as="targetPoint" />
          </mxGeometry>
        </mxCell>
        <mxCell id="byGhOwaWoWd87iB-xlGQ-33" value="" style="group;fontFamily=Courier New;fontSize=13;" vertex="1" connectable="0" parent="1">
          <mxGeometry x="205.04932460632364" y="239.0258984431835" width="69.27272903349117" height="83.40712103261215" as="geometry" />
        </mxCell>
        <mxCell id="byGhOwaWoWd87iB-xlGQ-34" value="" style="group;fontFamily=Courier New;fontSize=13;" vertex="1" connectable="0" parent="byGhOwaWoWd87iB-xlGQ-33">
          <mxGeometry y="12.43212123247034" width="69.27272903349117" height="56.95302300164428" as="geometry" />
        </mxCell>
        <mxCell id="byGhOwaWoWd87iB-xlGQ-35" value="Mem" style="text;html=1;align=left;verticalAlign=middle;whiteSpace=wrap;rounded=0;fontSize=13;shadow=0;textShadow=1;labelBorderColor=none;labelBackgroundColor=none;fontFamily=Courier New;textOpacity=70;" vertex="1" parent="byGhOwaWoWd87iB-xlGQ-34">
          <mxGeometry x="18.896283871525505" y="22.781209200657706" width="50.380166569811735" height="34.17181380098657" as="geometry" />
        </mxCell>
        <mxCell id="byGhOwaWoWd87iB-xlGQ-36" value="" style="group;fontFamily=Courier New;fontSize=13;" vertex="1" connectable="0" parent="byGhOwaWoWd87iB-xlGQ-34">
          <mxGeometry width="69.27272903349112" height="34.17181380098657" as="geometry" />
        </mxCell>
        <mxCell id="byGhOwaWoWd87iB-xlGQ-37" value="" style="endArrow=none;html=1;rounded=0;shadow=1;strokeColor=#b85450;fillColor=#f8cecc;fontFamily=Courier New;fontSize=13;" edge="1" parent="byGhOwaWoWd87iB-xlGQ-36">
          <mxGeometry width="50" height="50" relative="1" as="geometry">
            <mxPoint y="29.61557196085502" as="sourcePoint" />
            <mxPoint x="25.190083284905864" y="6.834362760197312" as="targetPoint" />
          </mxGeometry>
        </mxCell>
        <mxCell id="byGhOwaWoWd87iB-xlGQ-38" value="32-bit" style="text;html=1;align=left;verticalAlign=middle;whiteSpace=wrap;rounded=0;fontSize=13;shadow=0;textShadow=1;labelBorderColor=none;labelBackgroundColor=none;fontFamily=Courier New;textOpacity=70;fontColor=#990000;" vertex="1" parent="byGhOwaWoWd87iB-xlGQ-36">
          <mxGeometry x="18.892562463679397" width="50.38016656981173" height="34.17181380098657" as="geometry" />
        </mxCell>
        <mxCell id="byGhOwaWoWd87iB-xlGQ-39" value="" style="endArrow=none;startArrow=classic;html=1;rounded=0;shadow=1;endFill=0;fontFamily=Courier New;fontSize=13;" edge="1" parent="byGhOwaWoWd87iB-xlGQ-33">
          <mxGeometry width="50" height="50" relative="1" as="geometry">
            <mxPoint x="15.899041224780555" y="101.89364178670156" as="sourcePoint" />
            <mxPoint x="15.899041224780555" y="0.11203259129925937" as="targetPoint" />
          </mxGeometry>
        </mxCell>
        <mxCell id="byGhOwaWoWd87iB-xlGQ-40" value="" style="group;fontFamily=Courier New;fontSize=13;" vertex="1" connectable="0" parent="1">
          <mxGeometry x="108.91775747087337" y="239.0258984431835" width="69.27272903349117" height="83.40712103261215" as="geometry" />
        </mxCell>
        <mxCell id="byGhOwaWoWd87iB-xlGQ-41" value="" style="group;fontFamily=Courier New;fontSize=13;" vertex="1" connectable="0" parent="byGhOwaWoWd87iB-xlGQ-40">
          <mxGeometry y="12.43212123247034" width="69.27272903349117" height="56.95302300164428" as="geometry" />
        </mxCell>
        <mxCell id="byGhOwaWoWd87iB-xlGQ-42" value="Mem" style="text;html=1;align=left;verticalAlign=middle;whiteSpace=wrap;rounded=0;fontSize=13;shadow=0;textShadow=1;labelBorderColor=none;labelBackgroundColor=none;fontFamily=Courier New;textOpacity=70;" vertex="1" parent="byGhOwaWoWd87iB-xlGQ-41">
          <mxGeometry x="18.896283871525505" y="22.781209200657706" width="50.380166569811735" height="34.17181380098657" as="geometry" />
        </mxCell>
        <mxCell id="byGhOwaWoWd87iB-xlGQ-43" value="" style="group;fontFamily=Courier New;fontSize=13;" vertex="1" connectable="0" parent="byGhOwaWoWd87iB-xlGQ-41">
          <mxGeometry width="69.27272903349112" height="34.17181380098657" as="geometry" />
        </mxCell>
        <mxCell id="byGhOwaWoWd87iB-xlGQ-44" value="" style="endArrow=none;html=1;rounded=0;shadow=1;strokeColor=#b85450;fillColor=#f8cecc;fontFamily=Courier New;fontSize=13;" edge="1" parent="byGhOwaWoWd87iB-xlGQ-43">
          <mxGeometry width="50" height="50" relative="1" as="geometry">
            <mxPoint y="29.61557196085502" as="sourcePoint" />
            <mxPoint x="25.190083284905864" y="6.834362760197312" as="targetPoint" />
          </mxGeometry>
        </mxCell>
        <mxCell id="byGhOwaWoWd87iB-xlGQ-45" value="32-bit" style="text;html=1;align=left;verticalAlign=middle;whiteSpace=wrap;rounded=0;fontSize=13;shadow=0;textShadow=1;labelBorderColor=none;labelBackgroundColor=none;fontFamily=Courier New;textOpacity=70;fontColor=#990000;" vertex="1" parent="byGhOwaWoWd87iB-xlGQ-43">
          <mxGeometry x="18.892562463679397" width="50.38016656981173" height="34.17181380098657" as="geometry" />
        </mxCell>
        <mxCell id="byGhOwaWoWd87iB-xlGQ-46" value="" style="endArrow=none;startArrow=classic;html=1;rounded=0;shadow=1;endFill=0;fontFamily=Courier New;fontSize=13;" edge="1" parent="byGhOwaWoWd87iB-xlGQ-40">
          <mxGeometry width="50" height="50" relative="1" as="geometry">
            <mxPoint x="16.41236512696012" y="101.89364178670156" as="sourcePoint" />
            <mxPoint x="16.41236512696012" y="0.11203259129925937" as="targetPoint" />
          </mxGeometry>
        </mxCell>
        <mxCell id="byGhOwaWoWd87iB-xlGQ-47" value="" style="group;fontFamily=Courier New;fontSize=13;" vertex="1" connectable="0" parent="1">
          <mxGeometry x="492.52412932980235" y="395.4864728687262" width="188.92562463679397" height="56.953023001644326" as="geometry" />
        </mxCell>
        <mxCell id="byGhOwaWoWd87iB-xlGQ-48" value="" style="group;fontFamily=Courier New;fontSize=13;" vertex="1" connectable="0" parent="byGhOwaWoWd87iB-xlGQ-47">
          <mxGeometry width="188.925624636794" height="34.17181380098657" as="geometry" />
        </mxCell>
        <mxCell id="byGhOwaWoWd87iB-xlGQ-49" value="32-bit" style="text;html=1;align=left;verticalAlign=middle;whiteSpace=wrap;rounded=0;fontSize=13;shadow=0;textShadow=1;labelBorderColor=none;labelBackgroundColor=none;fontFamily=Courier New;textOpacity=70;fontColor=#990000;" vertex="1" parent="byGhOwaWoWd87iB-xlGQ-48">
          <mxGeometry x="18.892562463679397" width="170.03306217311462" height="34.17181380098657" as="geometry" />
        </mxCell>
        <mxCell id="byGhOwaWoWd87iB-xlGQ-50" value="&lt;font color=&quot;#000000&quot; style=&quot;font-size: 15px;&quot; data-font-src=&quot;https://fonts.googleapis.com/css?family=Dancing+script&quot;&gt;Clock Gate&lt;/font&gt;&lt;div style=&quot;line-height: 100%; font-size: 15px;&quot;&gt;&lt;font color=&quot;#000000&quot; style=&quot;font-size: 15px;&quot; data-font-src=&quot;https://fonts.googleapis.com/css?family=Dancing+script&quot;&gt;Cell&lt;/font&gt;&lt;/div&gt;" style="rounded=1;whiteSpace=wrap;html=1;fontSize=15;shadow=1;fillColor=#e1d5e7;strokeColor=#9673a6;fontFamily=Courier New;textShadow=1;textOpacity=70;" vertex="1" parent="1">
          <mxGeometry x="682.4889913047717" y="141.04053046504984" width="125.95041642452931" height="56.95302300164427" as="geometry" />
        </mxCell>
        <mxCell id="byGhOwaWoWd87iB-xlGQ-51" value="" style="endArrow=classic;startArrow=classic;html=1;rounded=0;shadow=1;entryX=0.5;entryY=1;entryDx=0;entryDy=0;fontFamily=Courier New;fontSize=13;" edge="1" parent="1">
          <mxGeometry width="50" height="50" relative="1" as="geometry">
            <mxPoint x="745" y="259" as="sourcePoint" />
            <mxPoint x="744.9174265327937" y="198.93615597264662" as="targetPoint" />
          </mxGeometry>
        </mxCell>
        <mxCell id="byGhOwaWoWd87iB-xlGQ-52" value="OBI" style="text;html=1;align=left;verticalAlign=middle;whiteSpace=wrap;rounded=0;fontSize=13;shadow=0;textShadow=1;labelBorderColor=none;labelBackgroundColor=none;fontFamily=Courier New;textOpacity=70;" vertex="1" parent="1">
          <mxGeometry x="631.1870793352226" y="465.6019011477709" width="50.38016656981173" height="34.171813800986556" as="geometry" />
        </mxCell>
        <mxCell id="byGhOwaWoWd87iB-xlGQ-53" value="OBI" style="text;html=1;align=left;verticalAlign=middle;whiteSpace=wrap;rounded=0;fontSize=13;shadow=0;textShadow=1;labelBorderColor=none;labelBackgroundColor=none;fontFamily=Courier New;textOpacity=70;" vertex="1" parent="1">
          <mxGeometry x="632.1114213269093" y="495.1785052507826" width="50.38016656981173" height="34.171813800986556" as="geometry" />
        </mxCell>
        <mxCell id="byGhOwaWoWd87iB-xlGQ-54" value="" style="endArrow=classic;startArrow=none;html=1;rounded=0;shadow=1;startFill=0;fontFamily=Courier New;fontSize=13;" edge="1" parent="1">
          <mxGeometry width="50" height="50" relative="1" as="geometry">
            <mxPoint x="970.7392669590166" y="330" as="sourcePoint" />
            <mxPoint x="818.4833747214677" y="328.21313982249376" as="targetPoint" />
          </mxGeometry>
        </mxCell>
        <mxCell id="byGhOwaWoWd87iB-xlGQ-55" value="" style="endArrow=none;startArrow=classic;html=1;rounded=0;shadow=1;startFill=1;endFill=0;fontFamily=Courier New;fontSize=13;" edge="1" parent="1">
          <mxGeometry width="50" height="50" relative="1" as="geometry">
            <mxPoint x="970.7392669590166" y="490" as="sourcePoint" />
            <mxPoint x="818.6026764776991" y="489.8220978570391" as="targetPoint" />
          </mxGeometry>
        </mxCell>
        <mxCell id="byGhOwaWoWd87iB-xlGQ-56" value="" style="endArrow=none;startArrow=classic;html=1;rounded=0;shadow=1;startFill=1;endFill=0;fontFamily=Courier New;fontSize=13;" edge="1" parent="1">
          <mxGeometry width="50" height="50" relative="1" as="geometry">
            <mxPoint x="970.7392669590166" y="520" as="sourcePoint" />
            <mxPoint x="818.190016213824" y="518.8653353702896" as="targetPoint" />
          </mxGeometry>
        </mxCell>
        <mxCell id="byGhOwaWoWd87iB-xlGQ-57" value="" style="endArrow=none;html=1;rounded=0;shadow=1;strokeColor=#b85450;fillColor=#f8cecc;fontFamily=Courier New;fontSize=13;" edge="1" parent="1">
          <mxGeometry width="50" height="50" relative="1" as="geometry">
            <mxPoint x="860.1948241749271" y="501.47488587741185" as="sourcePoint" />
            <mxPoint x="885.3849074598327" y="478.6936766767541" as="targetPoint" />
          </mxGeometry>
        </mxCell>
        <mxCell id="byGhOwaWoWd87iB-xlGQ-58" value="32-bit" style="text;html=1;align=left;verticalAlign=middle;whiteSpace=wrap;rounded=0;fontSize=13;shadow=0;textShadow=1;labelBorderColor=none;labelBackgroundColor=none;fontFamily=Courier New;textOpacity=70;fontColor=#990000;" vertex="1" parent="1">
          <mxGeometry x="825.0163730179814" y="465.2983878946604" width="50.38016656981173" height="34.171813800986556" as="geometry" />
        </mxCell>
        <mxCell id="byGhOwaWoWd87iB-xlGQ-59" value="OBI" style="text;html=1;align=left;verticalAlign=middle;whiteSpace=wrap;rounded=0;fontSize=13;shadow=0;textShadow=1;labelBorderColor=none;labelBackgroundColor=none;fontFamily=Courier New;textOpacity=70;" vertex="1" parent="1">
          <mxGeometry x="888.0914949260701" y="463.5993724121387" width="50.38016656981173" height="34.171813800986556" as="geometry" />
        </mxCell>
        <mxCell id="byGhOwaWoWd87iB-xlGQ-60" value="" style="endArrow=none;html=1;rounded=0;shadow=1;strokeColor=#b85450;fillColor=#f8cecc;fontFamily=Courier New;fontSize=13;" edge="1" parent="1">
          <mxGeometry width="50" height="50" relative="1" as="geometry">
            <mxPoint x="860.1976766244486" y="532.0714899804237" as="sourcePoint" />
            <mxPoint x="885.3877599093545" y="509.29028077976596" as="targetPoint" />
          </mxGeometry>
        </mxCell>
        <mxCell id="byGhOwaWoWd87iB-xlGQ-61" value="32-bit" style="text;html=1;align=left;verticalAlign=middle;whiteSpace=wrap;rounded=0;fontSize=13;shadow=0;textShadow=1;labelBorderColor=none;labelBackgroundColor=none;fontFamily=Courier New;textOpacity=70;fontColor=#990000;" vertex="1" parent="1">
          <mxGeometry x="825.0192254675032" y="494.47999999999996" width="50.38016656981173" height="34.171813800986556" as="geometry" />
        </mxCell>
        <mxCell id="byGhOwaWoWd87iB-xlGQ-62" value="OBI" style="text;html=1;align=left;verticalAlign=middle;whiteSpace=wrap;rounded=0;fontSize=13;shadow=0;textShadow=1;labelBorderColor=none;labelBackgroundColor=none;fontFamily=Courier New;textOpacity=70;" vertex="1" parent="1">
          <mxGeometry x="888.0943473755921" y="495.17597651515047" width="50.38016656981173" height="34.171813800986556" as="geometry" />
        </mxCell>
        <mxCell id="byGhOwaWoWd87iB-xlGQ-63" value="" style="endArrow=none;html=1;rounded=0;shadow=1;strokeColor=#b85450;fillColor=#f8cecc;fontFamily=Courier New;fontSize=13;" edge="1" parent="1">
          <mxGeometry width="50" height="50" relative="1" as="geometry">
            <mxPoint x="860.1970877070394" y="342.1325273731195" as="sourcePoint" />
            <mxPoint x="885.3871709919451" y="319.35131817246196" as="targetPoint" />
          </mxGeometry>
        </mxCell>
        <mxCell id="byGhOwaWoWd87iB-xlGQ-64" value="32-bit" style="text;html=1;align=left;verticalAlign=middle;whiteSpace=wrap;rounded=0;fontSize=13;shadow=0;textShadow=1;labelBorderColor=none;labelBackgroundColor=none;fontFamily=Courier New;textOpacity=70;fontColor=#990000;" vertex="1" parent="1">
          <mxGeometry x="825.0155116516041" y="301.70229012076237" width="50.38016656981173" height="34.171813800986556" as="geometry" />
        </mxCell>
        <mxCell id="byGhOwaWoWd87iB-xlGQ-65" value="OBI" style="text;html=1;align=left;verticalAlign=middle;whiteSpace=wrap;rounded=0;fontSize=13;shadow=0;textShadow=1;labelBorderColor=none;labelBackgroundColor=none;fontFamily=Courier New;textOpacity=70;" vertex="1" parent="1">
          <mxGeometry x="888.0954517431518" y="306.26" width="50.38016656981173" height="34.171813800986556" as="geometry" />
        </mxCell>
        <mxCell id="byGhOwaWoWd87iB-xlGQ-66" value="" style="group;fontFamily=Courier New;fontSize=13;" vertex="1" connectable="0" parent="1">
          <mxGeometry x="398.3896931367882" y="251.11284726186074" width="69.27272903349117" height="492.1626699795186" as="geometry" />
        </mxCell>
        <mxCell id="byGhOwaWoWd87iB-xlGQ-67" value="Mem" style="text;html=1;align=left;verticalAlign=middle;whiteSpace=wrap;rounded=0;fontSize=13;shadow=0;textShadow=1;labelBorderColor=none;labelBackgroundColor=none;fontFamily=Courier New;textOpacity=70;" vertex="1" parent="byGhOwaWoWd87iB-xlGQ-66">
          <mxGeometry x="18.896283871525505" y="22.781209200657702" width="50.380166569811735" height="34.171813800986556" as="geometry" />
        </mxCell>
        <mxCell id="byGhOwaWoWd87iB-xlGQ-68" value="" style="group;fontFamily=Courier New;fontSize=13;" vertex="1" connectable="0" parent="byGhOwaWoWd87iB-xlGQ-66">
          <mxGeometry width="69.27272903349112" height="34.171813800986556" as="geometry" />
        </mxCell>
        <mxCell id="byGhOwaWoWd87iB-xlGQ-69" value="" style="endArrow=none;html=1;rounded=0;shadow=1;strokeColor=#b85450;fillColor=#f8cecc;fontFamily=Courier New;fontSize=13;" edge="1" parent="byGhOwaWoWd87iB-xlGQ-68">
          <mxGeometry width="50" height="50" relative="1" as="geometry">
            <mxPoint y="29.615571960855018" as="sourcePoint" />
            <mxPoint x="25.190083284905864" y="6.83436276019731" as="targetPoint" />
          </mxGeometry>
        </mxCell>
        <mxCell id="byGhOwaWoWd87iB-xlGQ-70" value="32-bit" style="text;html=1;align=left;verticalAlign=middle;whiteSpace=wrap;rounded=0;fontSize=13;shadow=0;textShadow=1;labelBorderColor=none;labelBackgroundColor=none;fontFamily=Courier New;textOpacity=70;fontColor=#990000;" vertex="1" parent="byGhOwaWoWd87iB-xlGQ-68">
          <mxGeometry x="18.892562463679397" width="50.38016656981173" height="34.171813800986556" as="geometry" />
        </mxCell>
        <mxCell id="byGhOwaWoWd87iB-xlGQ-71" value="" style="endArrow=none;startArrow=classic;html=1;rounded=0;shadow=1;endFill=0;fontFamily=Courier New;fontSize=13;" edge="1" parent="1">
          <mxGeometry width="50" height="50" relative="1" as="geometry">
            <mxPoint x="412.1848522976456" y="340.91954022988506" as="sourcePoint" />
            <mxPoint x="412.1848522976456" y="239.13793103448276" as="targetPoint" />
          </mxGeometry>
        </mxCell>
        <mxCell id="byGhOwaWoWd87iB-xlGQ-72" value="" style="endArrow=none;startArrow=classic;html=1;rounded=0;shadow=1;startFill=1;endFill=0;fontFamily=Courier New;fontSize=13;" edge="1" parent="1">
          <mxGeometry width="50" height="50" relative="1" as="geometry">
            <mxPoint x="970.7392669590166" y="290" as="sourcePoint" />
            <mxPoint x="818.4509952538211" y="290" as="targetPoint" />
          </mxGeometry>
        </mxCell>
        <mxCell id="byGhOwaWoWd87iB-xlGQ-73" value="Interrupt" style="text;html=1;align=left;verticalAlign=middle;whiteSpace=wrap;rounded=0;fontSize=13;shadow=0;textShadow=1;fontFamily=Courier New;textOpacity=70;" vertex="1" parent="1">
          <mxGeometry x="977.8358527990191" y="269.91494252873565" width="96.3298933865402" height="41.70356051630605" as="geometry" />
        </mxCell>
        <mxCell id="byGhOwaWoWd87iB-xlGQ-74" value="" style="rounded=1;whiteSpace=wrap;html=1;shadow=1;fillColor=none;strokeColor=#82b366;fontFamily=Courier New;fontSize=13;" vertex="1" parent="1">
          <mxGeometry x="73.07475267085113" y="632.4132183908046" width="386.2977026624135" height="111.20747126436781" as="geometry" />
        </mxCell>
        <mxCell id="byGhOwaWoWd87iB-xlGQ-75" value="&lt;div style=&quot;font-size: 16px; line-height: 100%;&quot;&gt;&lt;span style=&quot;background-color: initial; font-size: 16px;&quot;&gt;Interleaved&amp;nbsp;&lt;/span&gt;Bus&lt;/div&gt;" style="rounded=1;whiteSpace=wrap;html=1;fontSize=16;shadow=1;fillColor=#dae8fc;strokeColor=#6c8ebf;fontFamily=Courier New;textShadow=1;textOpacity=70;" vertex="1" parent="1">
          <mxGeometry x="72.92176348167794" y="465.5975862068966" width="384.3853377977481" height="83.40781609195402" as="geometry" />
        </mxCell>
        <mxCell id="byGhOwaWoWd87iB-xlGQ-76" value="&lt;p style=&quot;line-height: 100%; font-size: 15px;&quot;&gt;Data&amp;nbsp; &lt;span style=&quot;background-color: initial; font-size: 15px;&quot;&gt;Mam 0&lt;/span&gt;&lt;/p&gt;" style="rounded=1;whiteSpace=wrap;html=1;fillColor=#d5e8d4;fontSize=15;shadow=1;strokeColor=#82b366;fontFamily=Courier New;textShadow=1;textOpacity=70;align=center;" vertex="1" parent="1">
          <mxGeometry x="85.04936960342286" y="646.3154889734155" width="72.24742003990515" height="83.4071210326121" as="geometry" />
        </mxCell>
        <mxCell id="byGhOwaWoWd87iB-xlGQ-77" value="&lt;p style=&quot;line-height: 100%; font-size: 15px;&quot;&gt;Data&amp;nbsp; &lt;span style=&quot;background-color: initial; font-size: 15px;&quot;&gt;Mem 1&lt;/span&gt;&lt;/p&gt;" style="rounded=1;whiteSpace=wrap;html=1;fillColor=#d5e8d4;fontSize=15;shadow=1;strokeColor=#82b366;fontFamily=Courier New;textShadow=1;textOpacity=70;align=center;" vertex="1" parent="1">
          <mxGeometry x="181.37926298996308" y="646.3154889734155" width="72.24742003990515" height="83.4071210326121" as="geometry" />
        </mxCell>
        <mxCell id="byGhOwaWoWd87iB-xlGQ-78" value="&lt;p style=&quot;line-height: 100%; font-size: 15px;&quot;&gt;Data&amp;nbsp; Mem 2&lt;/p&gt;" style="rounded=1;whiteSpace=wrap;html=1;fillColor=#d5e8d4;fontSize=15;shadow=1;strokeColor=#82b366;fontFamily=Courier New;textShadow=1;textOpacity=70;align=center;" vertex="1" parent="1">
          <mxGeometry x="277.70915637650324" y="646.3154889734155" width="72.24742003990515" height="83.4071210326121" as="geometry" />
        </mxCell>
        <mxCell id="byGhOwaWoWd87iB-xlGQ-79" value="&lt;p style=&quot;line-height: 100%; font-size: 15px;&quot;&gt;Data&amp;nbsp; Mem 3&lt;/p&gt;" style="rounded=1;whiteSpace=wrap;html=1;fillColor=#d5e8d4;fontSize=15;shadow=1;strokeColor=#82b366;fontFamily=Courier New;textShadow=1;textOpacity=70;align=center;" vertex="1" parent="1">
          <mxGeometry x="374.0390497630434" y="646.3154889734155" width="72.24742003990515" height="83.4071210326121" as="geometry" />
        </mxCell>
        <mxCell id="byGhOwaWoWd87iB-xlGQ-80" value="" style="endArrow=none;startArrow=classic;html=1;rounded=0;shadow=1;endFill=0;fontFamily=Courier New;fontSize=13;" edge="1" parent="1">
          <mxGeometry width="50" height="50" relative="1" as="geometry">
            <mxPoint x="220.94836583110418" y="463.9425287356322" as="sourcePoint" />
            <mxPoint x="220" y="380" as="targetPoint" />
          </mxGeometry>
        </mxCell>
        <mxCell id="byGhOwaWoWd87iB-xlGQ-81" value="" style="endArrow=none;startArrow=classic;html=1;rounded=0;shadow=1;endFill=0;fontFamily=Courier New;fontSize=13;" edge="1" parent="1">
          <mxGeometry width="50" height="50" relative="1" as="geometry">
            <mxPoint x="410" y="465" as="sourcePoint" />
            <mxPoint x="410" y="380" as="targetPoint" />
          </mxGeometry>
        </mxCell>
        <mxCell id="byGhOwaWoWd87iB-xlGQ-82" value="" style="endArrow=none;startArrow=classic;html=1;rounded=0;shadow=1;endFill=0;exitX=0.25;exitY=0;exitDx=0;exitDy=0;fontFamily=Courier New;fontSize=13;" edge="1" parent="1" source="byGhOwaWoWd87iB-xlGQ-117">
          <mxGeometry width="50" height="50" relative="1" as="geometry">
            <mxPoint x="506.5555107864564" y="465.60006006942297" as="sourcePoint" />
            <mxPoint x="506.5555107864564" y="382.1929390368108" as="targetPoint" />
          </mxGeometry>
        </mxCell>
        <mxCell id="byGhOwaWoWd87iB-xlGQ-83" value="" style="endArrow=none;startArrow=classic;html=1;rounded=0;shadow=1;endFill=0;fontFamily=Courier New;fontSize=13;" edge="1" parent="1">
          <mxGeometry width="50" height="50" relative="1" as="geometry">
            <mxPoint x="316.5666090643749" y="464.8275862068966" as="sourcePoint" />
            <mxPoint x="316.5666090643749" y="380" as="targetPoint" />
          </mxGeometry>
        </mxCell>
        <mxCell id="byGhOwaWoWd87iB-xlGQ-84" value="" style="endArrow=none;startArrow=classic;html=1;rounded=0;shadow=1;startFill=1;endFill=0;fontFamily=Courier New;fontSize=13;" edge="1" parent="1">
          <mxGeometry width="50" height="50" relative="1" as="geometry">
            <mxPoint x="121.23593724029541" y="631.02418345077" as="sourcePoint" />
            <mxPoint x="121.23593724029541" y="549.007181102035" as="targetPoint" />
          </mxGeometry>
        </mxCell>
        <mxCell id="byGhOwaWoWd87iB-xlGQ-85" value="" style="endArrow=none;startArrow=classic;html=1;rounded=0;shadow=1;startFill=1;endFill=0;fontFamily=Courier New;fontSize=13;" edge="1" parent="1">
          <mxGeometry width="50" height="50" relative="1" as="geometry">
            <mxPoint x="217.56583062683552" y="631.02418345077" as="sourcePoint" />
            <mxPoint x="217.56583062683552" y="549.007181102035" as="targetPoint" />
          </mxGeometry>
        </mxCell>
        <mxCell id="byGhOwaWoWd87iB-xlGQ-86" value="" style="endArrow=none;startArrow=classic;html=1;rounded=0;shadow=1;startFill=1;endFill=0;fontFamily=Courier New;fontSize=13;" edge="1" parent="1">
          <mxGeometry width="50" height="50" relative="1" as="geometry">
            <mxPoint x="410.22561739991613" y="631.02418345077" as="sourcePoint" />
            <mxPoint x="410.22561739991613" y="549.007181102035" as="targetPoint" />
          </mxGeometry>
        </mxCell>
        <mxCell id="byGhOwaWoWd87iB-xlGQ-87" value="" style="endArrow=none;startArrow=classic;html=1;rounded=0;shadow=1;startFill=1;endFill=0;fontFamily=Courier New;fontSize=13;" edge="1" parent="1">
          <mxGeometry width="50" height="50" relative="1" as="geometry">
            <mxPoint x="313.8957240133758" y="631.02418345077" as="sourcePoint" />
            <mxPoint x="313.8957240133758" y="549.007181102035" as="targetPoint" />
          </mxGeometry>
        </mxCell>
        <mxCell id="byGhOwaWoWd87iB-xlGQ-88" value="Data Bridge" style="rounded=1;whiteSpace=wrap;html=1;fillColor=#ffe6cc;fontSize=13;shadow=1;strokeColor=#d79b00;fontFamily=Courier New;textShadow=1;textOpacity=70;" vertex="1" parent="1">
          <mxGeometry x="96.29" y="340.43" width="350" height="40.13" as="geometry" />
        </mxCell>
        <mxCell id="byGhOwaWoWd87iB-xlGQ-89" value="" style="endArrow=none;html=1;rounded=0;shadow=1;strokeColor=#b85450;fillColor=#f8cecc;fontFamily=Courier New;fontSize=13;" edge="1" parent="1">
          <mxGeometry width="50" height="50" relative="1" as="geometry">
            <mxPoint x="492.67711851897576" y="424.6152632203859" as="sourcePoint" />
            <mxPoint x="517.8672018038815" y="401.83405401972806" as="targetPoint" />
          </mxGeometry>
        </mxCell>
        <mxCell id="byGhOwaWoWd87iB-xlGQ-90" value="" style="group;fontFamily=Courier New;fontSize=13;" vertex="1" connectable="0" parent="1">
          <mxGeometry x="109.99508865173372" y="394.99969125953083" width="188.925624636794" height="68.60441249677017" as="geometry" />
        </mxCell>
        <mxCell id="byGhOwaWoWd87iB-xlGQ-91" value="" style="endArrow=none;html=1;rounded=0;shadow=1;strokeColor=#b85450;fillColor=#f8cecc;fontFamily=Courier New;fontSize=13;" edge="1" parent="byGhOwaWoWd87iB-xlGQ-90">
          <mxGeometry width="50" height="50" relative="1" as="geometry">
            <mxPoint y="29.615571960855018" as="sourcePoint" />
            <mxPoint x="25.190083284905864" y="6.83436276019731" as="targetPoint" />
          </mxGeometry>
        </mxCell>
        <mxCell id="byGhOwaWoWd87iB-xlGQ-92" value="OBI" style="text;html=1;align=left;verticalAlign=middle;whiteSpace=wrap;rounded=0;fontSize=13;shadow=0;textShadow=1;labelBorderColor=none;labelBackgroundColor=none;fontFamily=Courier New;textOpacity=70;" vertex="1" parent="byGhOwaWoWd87iB-xlGQ-90">
          <mxGeometry x="112.34542368093588" y="22.781209200657795" width="50.38016656981173" height="34.171813800986556" as="geometry" />
        </mxCell>
        <mxCell id="byGhOwaWoWd87iB-xlGQ-93" value="OBI" style="text;html=1;align=left;verticalAlign=middle;whiteSpace=wrap;rounded=0;fontSize=13;shadow=0;textShadow=1;labelBorderColor=none;labelBackgroundColor=none;fontFamily=Courier New;textOpacity=70;" vertex="1" parent="byGhOwaWoWd87iB-xlGQ-90">
          <mxGeometry x="15.339285223247828" y="22.781209200657745" width="50.38016656981173" height="34.171813800986556" as="geometry" />
        </mxCell>
        <mxCell id="byGhOwaWoWd87iB-xlGQ-94" value="" style="group;fontFamily=Courier New;fontSize=13;" vertex="1" connectable="0" parent="1">
          <mxGeometry x="206.131101095999" y="394.99969125953083" width="188.925624636794" height="34.171813800986556" as="geometry" />
        </mxCell>
        <mxCell id="byGhOwaWoWd87iB-xlGQ-95" value="" style="endArrow=none;html=1;rounded=0;shadow=1;strokeColor=#b85450;fillColor=#f8cecc;fontFamily=Courier New;fontSize=13;" edge="1" parent="byGhOwaWoWd87iB-xlGQ-94">
          <mxGeometry width="50" height="50" relative="1" as="geometry">
            <mxPoint y="29.615571960855018" as="sourcePoint" />
            <mxPoint x="25.190083284905864" y="6.83436276019731" as="targetPoint" />
          </mxGeometry>
        </mxCell>
        <mxCell id="byGhOwaWoWd87iB-xlGQ-96" value="" style="endArrow=none;html=1;rounded=0;shadow=1;strokeColor=#b85450;fillColor=#f8cecc;fontFamily=Courier New;fontSize=13;" edge="1" parent="byGhOwaWoWd87iB-xlGQ-94">
          <mxGeometry width="50" height="50" relative="1" as="geometry">
            <mxPoint x="96.92825660066592" y="28.473847822923993" as="sourcePoint" />
            <mxPoint x="122.11833988557176" y="5.692638622266277" as="targetPoint" />
          </mxGeometry>
        </mxCell>
        <mxCell id="byGhOwaWoWd87iB-xlGQ-97" value="" style="group;fontFamily=Courier New;fontSize=13;" vertex="1" connectable="0" parent="1">
          <mxGeometry x="395.6167640830234" y="565.2862025316455" width="86.0564189099436" height="56.956050504445905" as="geometry" />
        </mxCell>
        <mxCell id="byGhOwaWoWd87iB-xlGQ-98" value="OBI" style="text;html=1;align=left;verticalAlign=middle;whiteSpace=wrap;rounded=0;fontSize=13;shadow=0;textShadow=1;labelBorderColor=none;labelBackgroundColor=none;fontFamily=Courier New;textOpacity=70;" vertex="1" parent="byGhOwaWoWd87iB-xlGQ-97">
          <mxGeometry x="15.871196476235033" y="22.78423670345933" width="50.380166569811735" height="34.171813800986556" as="geometry" />
        </mxCell>
        <mxCell id="byGhOwaWoWd87iB-xlGQ-99" value="" style="endArrow=none;html=1;rounded=0;shadow=1;strokeColor=#b85450;fillColor=#f8cecc;fontFamily=Courier New;fontSize=13;" edge="1" parent="byGhOwaWoWd87iB-xlGQ-97">
          <mxGeometry width="50" height="50" relative="1" as="geometry">
            <mxPoint y="29.61859946365655" as="sourcePoint" />
            <mxPoint x="25.190083284905832" y="6.837390262998896" as="targetPoint" />
          </mxGeometry>
        </mxCell>
        <mxCell id="byGhOwaWoWd87iB-xlGQ-100" value="32-bit" style="text;html=1;align=left;verticalAlign=middle;whiteSpace=wrap;rounded=0;fontSize=13;shadow=0;textShadow=1;labelBorderColor=none;labelBackgroundColor=none;fontFamily=Courier New;textOpacity=70;fontColor=#990000;" vertex="1" parent="byGhOwaWoWd87iB-xlGQ-97">
          <mxGeometry x="24.382628376722934" width="70.18379053322066" height="34.17206896551724" as="geometry" />
        </mxCell>
        <mxCell id="byGhOwaWoWd87iB-xlGQ-101" value="" style="group;fontFamily=Courier New;fontSize=13;" vertex="1" connectable="0" parent="1">
          <mxGeometry x="298.5653002647012" y="565.2862025316455" width="76.49459458661653" height="56.956050504445905" as="geometry" />
        </mxCell>
        <mxCell id="byGhOwaWoWd87iB-xlGQ-102" value="OBI" style="text;html=1;align=left;verticalAlign=middle;whiteSpace=wrap;rounded=0;fontSize=13;shadow=0;textShadow=1;labelBorderColor=none;labelBackgroundColor=none;fontFamily=Courier New;textOpacity=70;" vertex="1" parent="byGhOwaWoWd87iB-xlGQ-101">
          <mxGeometry x="15.87119647623503" y="22.78423670345933" width="50.38016656981173" height="34.171813800986556" as="geometry" />
        </mxCell>
        <mxCell id="byGhOwaWoWd87iB-xlGQ-103" value="" style="endArrow=none;html=1;rounded=0;shadow=1;strokeColor=#b85450;fillColor=#f8cecc;fontFamily=Courier New;fontSize=13;" edge="1" parent="byGhOwaWoWd87iB-xlGQ-101">
          <mxGeometry width="50" height="50" relative="1" as="geometry">
            <mxPoint y="29.61859946365655" as="sourcePoint" />
            <mxPoint x="25.19008328490583" y="6.837390262998896" as="targetPoint" />
          </mxGeometry>
        </mxCell>
        <mxCell id="byGhOwaWoWd87iB-xlGQ-104" value="32-bit" style="text;html=1;align=left;verticalAlign=middle;whiteSpace=wrap;rounded=0;fontSize=13;shadow=0;textShadow=1;labelBorderColor=none;labelBackgroundColor=none;fontFamily=Courier New;textOpacity=70;fontColor=#990000;" vertex="1" parent="byGhOwaWoWd87iB-xlGQ-101">
          <mxGeometry x="21.43262837672293" width="60.6219662098936" height="34.17206896551724" as="geometry" />
        </mxCell>
        <mxCell id="byGhOwaWoWd87iB-xlGQ-105" value="" style="group;fontFamily=Courier New;fontSize=13;" vertex="1" connectable="0" parent="1">
          <mxGeometry x="206.131101095999" y="565.2862025316455" width="66.93277026328947" height="56.956050504445905" as="geometry" />
        </mxCell>
        <mxCell id="byGhOwaWoWd87iB-xlGQ-106" value="OBI" style="text;html=1;align=left;verticalAlign=middle;whiteSpace=wrap;rounded=0;fontSize=13;shadow=0;textShadow=1;labelBorderColor=none;labelBackgroundColor=none;fontFamily=Courier New;textOpacity=70;" vertex="1" parent="byGhOwaWoWd87iB-xlGQ-105">
          <mxGeometry x="11.31020627400802" y="22.78423670345933" width="50.38016656981173" height="34.171813800986556" as="geometry" />
        </mxCell>
        <mxCell id="byGhOwaWoWd87iB-xlGQ-107" value="" style="endArrow=none;html=1;rounded=0;shadow=1;strokeColor=#b85450;fillColor=#f8cecc;fontFamily=Courier New;fontSize=13;" edge="1" parent="byGhOwaWoWd87iB-xlGQ-105">
          <mxGeometry width="50" height="50" relative="1" as="geometry">
            <mxPoint y="29.61859946365655" as="sourcePoint" />
            <mxPoint x="25.190083284905835" y="6.837390262998896" as="targetPoint" />
          </mxGeometry>
        </mxCell>
        <mxCell id="byGhOwaWoWd87iB-xlGQ-108" value="32-bit" style="text;html=1;align=left;verticalAlign=middle;whiteSpace=wrap;rounded=0;fontSize=13;shadow=0;textShadow=1;labelBorderColor=none;labelBackgroundColor=none;fontFamily=Courier New;textOpacity=70;fontColor=#990000;" vertex="1" parent="byGhOwaWoWd87iB-xlGQ-105">
          <mxGeometry x="23.872628376722936" width="51.06014188656655" height="34.17206896551724" as="geometry" />
        </mxCell>
        <mxCell id="byGhOwaWoWd87iB-xlGQ-109" value="" style="group;fontFamily=Courier New;fontSize=13;" vertex="1" connectable="0" parent="1">
          <mxGeometry x="107.2220626766726" y="565.2862025316455" width="66.93277026328947" height="56.956050504445905" as="geometry" />
        </mxCell>
        <mxCell id="byGhOwaWoWd87iB-xlGQ-110" value="OBI" style="text;html=1;align=left;verticalAlign=middle;whiteSpace=wrap;rounded=0;fontSize=13;shadow=0;textShadow=1;labelBorderColor=none;labelBackgroundColor=none;fontFamily=Courier New;textOpacity=70;" vertex="1" parent="byGhOwaWoWd87iB-xlGQ-109">
          <mxGeometry x="16.215422151874805" y="22.78423670345933" width="50.38016656981173" height="34.171813800986556" as="geometry" />
        </mxCell>
        <mxCell id="byGhOwaWoWd87iB-xlGQ-111" value="" style="endArrow=none;html=1;rounded=0;shadow=1;strokeColor=#b85450;fillColor=#f8cecc;fontFamily=Courier New;fontSize=13;" edge="1" parent="byGhOwaWoWd87iB-xlGQ-109">
          <mxGeometry width="50" height="50" relative="1" as="geometry">
            <mxPoint y="29.61859946365655" as="sourcePoint" />
            <mxPoint x="25.190083284905835" y="6.837390262998896" as="targetPoint" />
          </mxGeometry>
        </mxCell>
        <mxCell id="byGhOwaWoWd87iB-xlGQ-112" value="32-bit" style="text;html=1;align=left;verticalAlign=middle;whiteSpace=wrap;rounded=0;fontSize=13;shadow=0;textShadow=1;labelBorderColor=none;labelBackgroundColor=none;fontFamily=Courier New;textOpacity=70;fontColor=#990000;" vertex="1" parent="byGhOwaWoWd87iB-xlGQ-109">
          <mxGeometry x="22.782628376722936" width="51.06014188656655" height="34.17206896551724" as="geometry" />
        </mxCell>
        <mxCell id="byGhOwaWoWd87iB-xlGQ-113" value="" style="endArrow=none;html=1;rounded=0;shadow=1;strokeColor=#b85450;fillColor=#f8cecc;fontFamily=Courier New;fontSize=13;" edge="1" parent="1">
          <mxGeometry width="50" height="50" relative="1" as="geometry">
            <mxPoint x="586.3989775953419" y="503.4528169118945" as="sourcePoint" />
            <mxPoint x="611.5890608802478" y="480.67160771123685" as="targetPoint" />
          </mxGeometry>
        </mxCell>
        <mxCell id="byGhOwaWoWd87iB-xlGQ-114" value="32-bit" style="text;html=1;align=left;verticalAlign=middle;whiteSpace=wrap;rounded=0;fontSize=13;shadow=0;textShadow=1;labelBorderColor=none;labelBackgroundColor=none;fontFamily=Courier New;textOpacity=70;fontColor=#990000;" vertex="1" parent="1">
          <mxGeometry x="554.696243771341" y="465.59769823948795" width="50.38016656981173" height="34.171813800986556" as="geometry" />
        </mxCell>
        <mxCell id="byGhOwaWoWd87iB-xlGQ-115" value="" style="endArrow=none;html=1;rounded=0;shadow=1;strokeColor=#b85450;fillColor=#f8cecc;fontFamily=Courier New;fontSize=13;" edge="1" parent="1">
          <mxGeometry width="50" height="50" relative="1" as="geometry">
            <mxPoint x="586.4053844519894" y="533.7640187160557" as="sourcePoint" />
            <mxPoint x="611.5954677368954" y="510.98280951539806" as="targetPoint" />
          </mxGeometry>
        </mxCell>
        <mxCell id="byGhOwaWoWd87iB-xlGQ-116" value="32-bit" style="text;html=1;align=left;verticalAlign=middle;whiteSpace=wrap;rounded=0;fontSize=13;shadow=0;textShadow=1;labelBorderColor=none;labelBackgroundColor=none;fontFamily=Courier New;textOpacity=70;fontColor=#990000;" vertex="1" parent="1">
          <mxGeometry x="554.6930888036652" y="496.20332169358363" width="50.38016656981173" height="34.171813800986556" as="geometry" />
        </mxCell>
        <mxCell id="byGhOwaWoWd87iB-xlGQ-117" value="Instr&lt;div style=&quot;font-size: 15px; line-height: 100%;&quot;&gt;Mem&lt;/div&gt;" style="rounded=1;whiteSpace=wrap;html=1;fillColor=#d5e8d4;fontSize=15;shadow=1;strokeColor=#82b366;fontFamily=Courier New;textShadow=1;textOpacity=70;" vertex="1" parent="1">
          <mxGeometry x="479.2706117501083" y="646.3174712643677" width="114.7418918799248" height="83.40781609195402" as="geometry" />
        </mxCell>
        <mxCell id="byGhOwaWoWd87iB-xlGQ-118" value="32-bit" style="text;html=1;align=left;verticalAlign=middle;whiteSpace=wrap;rounded=0;fontSize=13;shadow=0;textShadow=1;labelBorderColor=none;labelBackgroundColor=none;fontFamily=Courier New;textOpacity=70;fontColor=#990000;" vertex="1" parent="1">
          <mxGeometry x="130.225776651377" y="396.359540229885" width="52.47529188641894" height="34.17206896551724" as="geometry" />
        </mxCell>
        <mxCell id="byGhOwaWoWd87iB-xlGQ-119" value="" style="endArrow=none;startArrow=classic;html=1;rounded=0;shadow=1;endFill=0;fontFamily=Courier New;fontSize=13;entryX=0.086;entryY=0.995;entryDx=0;entryDy=0;entryPerimeter=0;" edge="1" parent="1" target="byGhOwaWoWd87iB-xlGQ-88">
          <mxGeometry width="50" height="50" relative="1" as="geometry">
            <mxPoint x="126" y="465" as="sourcePoint" />
            <mxPoint x="125.33012259783354" y="385.1724137931035" as="targetPoint" />
          </mxGeometry>
        </mxCell>
        <mxCell id="byGhOwaWoWd87iB-xlGQ-120" value="OBI" style="text;html=1;align=left;verticalAlign=middle;whiteSpace=wrap;rounded=0;fontSize=13;shadow=0;textShadow=1;labelBorderColor=none;labelBackgroundColor=none;fontFamily=Courier New;textOpacity=70;" vertex="1" parent="1">
          <mxGeometry x="410.9892770093525" y="417.7809004601886" width="50.38016656981173" height="34.17181380098657" as="geometry" />
        </mxCell>
        <mxCell id="byGhOwaWoWd87iB-xlGQ-121" value="" style="group;fontFamily=Courier New;fontSize=13;" vertex="1" connectable="0" parent="1">
          <mxGeometry x="398.39423536689947" y="394.99969125953083" width="188.925624636794" height="56.953023001644326" as="geometry" />
        </mxCell>
        <mxCell id="byGhOwaWoWd87iB-xlGQ-122" value="" style="endArrow=none;html=1;rounded=0;shadow=1;strokeColor=#b85450;fillColor=#f8cecc;fontFamily=Courier New;fontSize=13;" edge="1" parent="byGhOwaWoWd87iB-xlGQ-121">
          <mxGeometry width="50" height="50" relative="1" as="geometry">
            <mxPoint y="29.61557196085502" as="sourcePoint" />
            <mxPoint x="25.190083284905864" y="6.834362760197312" as="targetPoint" />
          </mxGeometry>
        </mxCell>
        <mxCell id="byGhOwaWoWd87iB-xlGQ-123" value="32-bit" style="text;html=1;align=left;verticalAlign=middle;whiteSpace=wrap;rounded=0;fontSize=13;shadow=0;textShadow=1;labelBorderColor=none;labelBackgroundColor=none;fontFamily=Courier New;textOpacity=70;fontColor=#990000;" vertex="1" parent="byGhOwaWoWd87iB-xlGQ-121">
          <mxGeometry x="18.892562463679397" width="170.03306217311462" height="34.17181380098657" as="geometry" />
        </mxCell>
        <mxCell id="byGhOwaWoWd87iB-xlGQ-124" value="" style="group;fontFamily=Courier New;fontSize=13;" vertex="1" connectable="0" parent="byGhOwaWoWd87iB-xlGQ-121">
          <mxGeometry x="-99.82893510219837" width="188.925624636794" height="56.953023001644326" as="geometry" />
        </mxCell>
        <mxCell id="byGhOwaWoWd87iB-xlGQ-125" value="OBI" style="text;html=1;align=left;verticalAlign=middle;whiteSpace=wrap;rounded=0;fontSize=13;shadow=0;textShadow=1;labelBorderColor=none;labelBackgroundColor=none;fontFamily=Courier New;textOpacity=70;" vertex="1" parent="byGhOwaWoWd87iB-xlGQ-124">
          <mxGeometry x="17.997472385132763" y="22.781209200657752" width="50.38016656981173" height="34.17181380098657" as="geometry" />
        </mxCell>
        <mxCell id="byGhOwaWoWd87iB-xlGQ-126" value="" style="group;fontFamily=Courier New;fontSize=13;" vertex="1" connectable="0" parent="byGhOwaWoWd87iB-xlGQ-124">
          <mxGeometry width="188.925624636794" height="34.17206896551724" as="geometry" />
        </mxCell>
        <mxCell id="byGhOwaWoWd87iB-xlGQ-127" value="32-bit" style="text;html=1;align=left;verticalAlign=middle;whiteSpace=wrap;rounded=0;fontSize=13;shadow=0;textShadow=1;labelBorderColor=none;labelBackgroundColor=none;fontFamily=Courier New;textOpacity=70;fontColor=#990000;" vertex="1" parent="byGhOwaWoWd87iB-xlGQ-126">
          <mxGeometry x="22.94837837598496" width="56.481696277892986" height="34.17206896551724" as="geometry" />
        </mxCell>
        <mxCell id="byGhOwaWoWd87iB-xlGQ-128" value="32-bit" style="text;html=1;align=left;verticalAlign=middle;whiteSpace=wrap;rounded=0;fontSize=13;shadow=0;textShadow=1;labelBorderColor=none;labelBackgroundColor=none;fontFamily=Courier New;textOpacity=70;fontColor=#990000;" vertex="1" parent="byGhOwaWoWd87iB-xlGQ-126">
          <mxGeometry x="-73.53999087070846" width="54.41634222405434" height="34.17206896551724" as="geometry" />
        </mxCell>
        <mxCell id="byGhOwaWoWd87iB-xlGQ-129" value="OBI" style="text;html=1;align=left;verticalAlign=middle;whiteSpace=wrap;rounded=0;fontSize=13;shadow=0;textShadow=1;labelBorderColor=none;labelBackgroundColor=none;fontFamily=Courier New;textOpacity=70;" vertex="1" parent="byGhOwaWoWd87iB-xlGQ-121">
          <mxGeometry x="109.41180824021079" y="22.781209200657745" width="50.38016656981173" height="34.17181380098657" as="geometry" />
        </mxCell>
        <mxCell id="byGhOwaWoWd87iB-xlGQ-130" value="Memory Hierarchy" style="text;html=1;align=left;verticalAlign=middle;whiteSpace=wrap;rounded=0;fontSize=16;shadow=0;textShadow=1;fontFamily=Courier New;textOpacity=70;" vertex="1" parent="1">
          <mxGeometry x="70.00089355026772" y="756" width="253.4457155141072" height="41.70390804597701" as="geometry" />
        </mxCell>
        <mxCell id="byGhOwaWoWd87iB-xlGQ-135" value="Instr Bridge" style="rounded=1;whiteSpace=wrap;html=1;fillColor=#ffe6cc;fontSize=13;shadow=1;strokeColor=#d79b00;fontFamily=Courier New;textShadow=1;textOpacity=70;" vertex="1" parent="1">
          <mxGeometry x="470.28" y="340.43" width="79.72" height="40.13" as="geometry" />
        </mxCell>
      </root>
    </mxGraphModel>
  </diagram>
</mxfile>
